# xmcd CD database file
#
# Track frame offsets:
#	150
#	22415
#	46475
#	58615
#	75768
#	100710
#	114515
#	137828
#	155180
#	182265
#
# Disc length: 2754 seconds
#
# Revision: 0
# Processed by: cddbd v1.5.1PL0 Copyright (c) Steve Scherf et al.
# Submitted via: CDex 1.60beta1
#
DISCID=7c0ac00a
DTITLE=Dave MacKay and Vicky Hamilton - Dave Mackay and Vicky Hamilton
DYEAR=1969
DGENRE=Jazz Vocal
TTITLE0=Now
TTITLE1=See You Later
TTITLE2=Jacque The Junkman
TTITLE3=Jersey Bounce
TTITLE4=Like Me
TTITLE5=Samba For Vicky
TTITLE6=Blues For Hari
TTITLE7=Elephant Song
TTITLE8=Moon Rider
TTITLE9=Here
EXTD=YEAR: 1969
EXTT0=
EXTT1=
EXTT2=
EXTT3=
EXTT4=
EXTT5=
EXTT6=
EXTT7=
EXTT8=
EXTT9=
PLAYORDER=
